<svg xmlns="http://www.w3.org/2000/svg" width="23.269" height="13.717" viewBox="0 0 23.269 13.717">
  <path id="behance" d="M969.508,10469.108a5.044,5.044,0,0,1,5.294-5.158c3.53,0,5.234,3.05,5.034,6.057h-7.481c.081,1.7.962,2.222,2.547,2.222,1.143,0,2.066-.194,2.248-.8h2.508c-.8,2.308-2.508,2.823-4.855,2.823A4.915,4.915,0,0,1,969.508,10469.108Zm2.847-.55h4.634c-.26-1.359-.883-2.587-2.269-2.587C972.918,10465.972,972.395,10467.8,972.355,10468.559Zm-15.772,5.555v-13.58h6.743c2.726,0,4.571.917,4.571,3.431a2.961,2.961,0,0,1-1.945,2.815,3.323,3.323,0,0,1,2.629,3.42c0,2.738-2.468,3.914-5.055,3.914Zm2.881-2.309H963.1c1.246,0,2.326-.376,2.326-1.776,0-1.378-.92-1.927-2.266-1.927h-3.7Zm0-5.723h3.459c1.1,0,1.927-.473,1.927-1.608,0-1.285-1.046-1.548-2.169-1.548h-3.218Zm11.545-2.852v-1.37h7.171v1.37Z" transform="translate(-956.583 -10460.533)" fill="#ee3364"/>
</svg>
