<svg xmlns="http://www.w3.org/2000/svg" width="19.406" height="19.981" viewBox="0 0 19.406 19.981">
  <path id="google_plus" data-name="google plus" d="M917.756,10474.226c0-4.318,6.249-4.387,6.756-4.387s.592-.135.168-.573a1.539,1.539,0,0,1-.308-2.215c-1.41.053-5.294-.687-5.294-4.139s3.745-4.929,5.094-4.929H930.9a7.18,7.18,0,0,1-1.013.631,4.142,4.142,0,0,1-2.028.2,4,4,0,0,1,1.83,3.227c0,2.138-1.07,3.068-2.419,4.218s-.563,1.836,1.546,3.285,2.7,4.66-.026,6.987a8.251,8.251,0,0,1-5.058,1.438C920.749,10477.965,917.756,10476.816,917.756,10474.226Zm2.391-.8c0,2,1.494,3.342,4.276,3.342s4.423-.9,4.423-2.767-1.841-2.795-2.872-3.561C922.174,10470.443,920.146,10471.43,920.146,10473.429Zm3.745-14.785c-3.94,0-2.419,7.556.928,7.556,4.415,0,2.173-7.558-.863-7.557Zm9.423,5.586v-2.462h-2.577v-1.275h2.577v-2.456h1.315v2.456h2.533v1.275h-2.533v2.462Z" transform="translate(-917.756 -10457.983)" fill="#ee3364"/>
</svg>
