<svg xmlns="http://www.w3.org/2000/svg" width="20.683" height="19.998" viewBox="0 0 20.683 19.998">
  <path id="instagram" d="M1057.931,10458h-16.546a2.04,2.04,0,0,0-2.068,2v16a2.041,2.041,0,0,0,2.068,2h16.546a2.041,2.041,0,0,0,2.068-2v-16A2.04,2.04,0,0,0,1057.931,10458Zm-8.273,6a4,4,0,1,1-4.137,4A4.082,4.082,0,0,1,1049.658,10464Zm-7.756,12a.481.481,0,0,1-.517-.5v-8.5h2.172a3.294,3.294,0,0,0-.1,1,6.208,6.208,0,0,0,12.41,0,3.3,3.3,0,0,0-.1-1h2.172v8.5a.481.481,0,0,1-.517.5Zm16.029-13.5a.481.481,0,0,1-.517.5h-2.068a.481.481,0,0,1-.517-.5v-2a.481.481,0,0,1,.517-.5h2.068a.481.481,0,0,1,.517.5Z" transform="translate(-1039.316 -10457.997)" fill="#ee3364"/>
</svg>
