<svg xmlns="http://www.w3.org/2000/svg" width="20.683" height="19.961" viewBox="0 0 20.683 19.961">
  <path id="pinterest" d="M1009.57,10458.021a10.165,10.165,0,0,0-10.341,9.979,9.984,9.984,0,0,0,6.247,9.169,8.494,8.494,0,0,1,.182-2.277c.2-.812,1.336-5.458,1.336-5.458a3.761,3.761,0,0,1-.331-1.587c0-1.482.891-2.592,2-2.592a1.362,1.362,0,0,1,1.4,1.506,20.964,20.964,0,0,1-.917,3.555,1.567,1.567,0,0,0,1.639,1.929c1.966,0,3.29-2.437,3.29-5.328,0-2.193-1.53-3.836-4.317-3.836a4.833,4.833,0,0,0-5.111,4.8,2.833,2.833,0,0,0,.685,1.966.474.474,0,0,1,.149.559c-.05.183-.163.626-.211.8a.36.36,0,0,1-.52.25c-1.449-.571-2.126-2.1-2.126-3.824,0-2.848,2.487-6.259,7.418-6.259,3.964,0,6.571,2.767,6.571,5.737,0,3.931-2.264,6.864-5.6,6.864a3.007,3.007,0,0,1-2.535-1.246s-.6,2.3-.73,2.751a8.255,8.255,0,0,1-1.027,2.121,10.761,10.761,0,0,0,2.849.384,9.987,9.987,0,1,0,0-19.961Z" transform="translate(-999.228 -10458.021)" fill="#ee3364"/>
</svg>
