<svg xmlns="http://www.w3.org/2000/svg" width="20.683" height="16.219" viewBox="0 0 20.683 16.219">
  <path id="twitter" d="M897.848,10461.231a7.7,7.7,0,0,1-2.368.647,4.4,4.4,0,0,0,1.779-2.237,7.051,7.051,0,0,1-2.663.912h0a4.326,4.326,0,0,0-3.085-1.272,4.194,4.194,0,0,0-4.267,4.117,3.942,3.942,0,0,0,.11.919h0a12.482,12.482,0,0,1-9.039-4.272,4.035,4.035,0,0,0,1.294,5.439,2.81,2.81,0,0,1-1.863-.464,3.988,3.988,0,0,0,3.291,4.023,3.455,3.455,0,0,1-1.776.129c.136,1.214,1.894,2.8,3.814,2.8a7.154,7.154,0,0,1-5.909,1.708,13.152,13.152,0,0,0,6.674,1.821,11.632,11.632,0,0,0,11.942-12.026c0-.008,0-.016,0-.023s0-.036,0-.052,0-.04,0-.061A7.216,7.216,0,0,0,897.848,10461.231Z" transform="translate(-877.165 -10459.282)" fill="#ee3364"/>
</svg>
